<svg xmlns="http://www.w3.org/2000/svg" xmlns:xlink="http://www.w3.org/1999/xlink" width="1800" height="450"><path fill="#25524f" d="M-72-71h1965v621H-72z"/><radialGradient  cx="1599.836" cy="478.48" r="900" gradientTransform="matrix(0 -1 1 0 432.5205 1329.1523)" gradientUnits="userSpaceOnUse"><stop offset="0" stop-color="#a4fdf9" stop-opacity=".75"/><stop offset=".5" stop-color="#a4fdf9" stop-opacity=".2"/><stop offset=".994" stop-color="#a4fdf9" stop-opacity="0"/></radialGradient><path fill="#fcdc4d" d="M1313.15 264.257l-1.645.09c-2.097.214-3.987-1.32-4.202-3.4l-.605-5.91c-.215-2.1 1.325-3.974 3.422-4.188l1.81-.12c2.097-.214 2.177 1.44 2.39 3.53l.607 5.91c.213 2.09.318 3.884-1.78 4.098z"/><path fill="#cb793a" d="M1314.377 264.117l-2.123.217c-1.512.154-2.875-.957-3.03-2.47l-.82-8.006c-.155-1.514.956-2.878 2.47-3.032l2.123-.217c1.513-.154 2.876.957 3.03 2.47l.822 8.006c.155 1.514-.957 2.878-2.47 3.032z"/><path fill="#fcdc4d" d="M1308.676 254.424c-.2 0-.387-.12-.463-.314-4.76-12.034 5.406-16.375 5.5-16.417.256-.105.545.016.65.27s-.016.544-.27.648c-.384.16-9.355 4.026-4.964 15.134.1.256-.024.545-.28.645a.51.51 0 0 1-.183.034z"/><path fill="#f4737f" d="M1328.014 274.356c.903-.703 1.23-2.128 2.334-2.43.34-.09.72-.058 1.023-.237.395-.233.516-.732.685-1.157.603-1.524 1.42-1.607 2.363-2.42l.222 1.284.242 1.397c-1.246 1.032-3.508 3.012-6.4 3.512-.155.027-.306.03-.46.05z"/><path fill="#ff969b" d="M1323.813 274.346c.097-.08.205-.136.312-.197 1.175.26 2.5.378 3.9.208-1.017.8-2.562.53-3.658 1.153 1.307.287 2.804.424 4.348.157 2.905-.5 5.17-2.482 6.414-3.514l-.234-1.358c.004-.004 1.606 10.168 1.606 10.168 1.15 4.85-10.938 5.484-12.396.722l-2.448-6.735c1.167.634 1.217.17 2.166-.604z"/><path fill="#f4737f" d="M1335.117 272.153c-1.244 1.03-3.51 3.015-6.414 3.514-1.544.267-3.04.13-4.348-.157 1.097-.622 2.642-.363 3.658-1.153l.46-.05c2.902-.5 5.164-2.48 6.4-3.512l.235 1.358z"/><path fill="#041b15" d="M1307.656 254.088c-.222.705.377 1.376.863 1.934.402.462 1.315 2.37 1.922 3.05l-.73-4.328.43-3.84c.23-1.2 1.215-2.44 2.423-2.255.508.08.962.4 1.476.435.4.025.84-.298.88-.644l.473.114c1.088.724 2.445 1.024 3.74.85 2.644.45 6.267-.176 7.88-2.133.982 1.065-.47 1.73-.022 2.72.29.64 1.354.656 1.57 1.325.106.33-.05.71.078 1.033.267.682 1.15.482 1.82.62l.248 1.436c1.66 9.005-13.284 13.757-19.516 9.016l.524 3.028c.168.972.7 2.233 1.487 3.535-.162 2.02-.3 1.38 2.803 5.91.155.226.31.454.517.632.288.25.653.39.966.604.622.425 1.088 1.157 1.83 1.26 1.07.148 1.403-.79 2.815-.022 1.17.635 1.22.17 2.168-.602a2.01 2.01 0 0 1 .313-.198c1.098-.623 2.642-.362 3.66-1.155.9-.7 1.23-2.128 2.333-2.427.34-.092.72-.058 1.023-.237.394-.233.516-.73.684-1.16.603-1.522 1.42-1.605 2.363-2.42 1.125-.966.202-1.728.528-2.82.1-.338.34-.623.42-.965.194-.822-.548-1.518-.9-2.293 2.466-3.575 2.312-7.582 1.813-12.043 0 0 .004-.444-.022-1.155.024.02.048.04.073.062 1.192-.892 2.26-3.8 1.108-5.084-.28-.313-.67-.52-.92-.857-.557-.754-.23-1.805-.268-2.74s-1.072-2.002-1.767-1.37c.412-1.383.77-3.042-.173-4.133-1.78-2.05-5.704.38-7.697-1.458-.597-.55-.887-1.4-1.56-1.85-.932-.62-2.244-.21-3.054.56-.548.52-.938 1.173-1.32 1.83-.97.53-2.02.176-2.384-.5-.1-.183-.122-.3-.308-.38-.104-.17-.23-.323-.412-.417-.396-.208-.88-.123-1.305.02-2.818.958-3.168 3.307-3.983 4.464-1.052 1.494-3.137 2.254-3.62 4.017-.262.956.027 2.02-.354 2.937-.405.972-1.502 1.596-1.685 2.632-.29 1.646 1.903 3.19 1.2 4.7-.12.258-.326.482-.414.76zm25.513 5.124l-.173-.697c.367-.55.65-.425.29-1.193-.908-1.937-.742-1.66-1.45-5.755 4.402-3.375 5.888 6.582 1.334 7.645z"/><path fill="#ff969b" d="M1309.713 254.767l.433-3.855c.23-1.204 1.22-2.45 2.433-2.265.5.08.967.403 1.482.437.4.025.842-.3.883-.647l.475.116c1.094.727 2.457 1.027 3.757.854 2.697.46 6.313-.2 7.913-2.143.987 1.07-.47 1.738-.02 2.73.29.643 1.36.66 1.578 1.33.107.332-.05.712.078 1.038.267.684 1.156.484 1.828.623l.248 1.44c1.52 8.248-11.914 14.35-19.597 9.052l-1.5-8.71z"/><path fill="#f38c65" d="M1333.17 259.212l-.173-.697c.367-.55.65-.425.29-1.193-.906-1.934-.742-1.66-1.45-5.755 4.402-3.375 5.87 6.585 1.334 7.645z"/><path d="M1324.645 255.622l-1.684.284c-.104.267-.15.585-.1.923l2.196-.2a1.67 1.67 0 0 0-.403-1.017zm1.63-3.23c.03.2.003.418-.12.572-1.703-1.595-4.373-1.513-5.965.183-.13-.146-.17-.352-.156-.562-.615-2.413 6.653-2.417 6.24-.193zm-9.5 2.08c.036.2.018.42-.1.578-1.757-1.53-4.42-1.353-5.953.4-.136-.142-.18-.345-.174-.556-.684-2.322 6.556-2.676 6.227-.423zm-3.71 3.106c-.1.27-.153.612-.085 1.038l2.196-.324c-.05-.444-.204-.773-.4-1.002l-1.702.288z" fill="#041b15"/><g fill="#f4737f"><path d="M1317.132 264.012a.6.6 0 0 0 .554.646c.33.025.62-.224.646-.556l.472-6.283c.024-.33-.225-.62-.554-.646s-.62.225-.647.555l-.47 6.284z"/><path d="M1317.174 264.372c.13.756 1 .328 3.625-.124.237-.04.4-.29.344-.56s-.273-.45-.512-.4c-2.625.45-3.59.34-3.457 1.094z"/></g><path d="M1311.12 261.928a2.12 2.12 0 0 1-1.274-.426 2.11 2.11 0 0 1-.83-1.4l-.5-3.427a2.13 2.13 0 0 1 1.81-2.403l3.943-.562a2.12 2.12 0 0 1 1.58.404 2.11 2.11 0 0 1 .832 1.399l.5 3.424a2.1 2.1 0 0 1-.404 1.575c-.34.454-.84.748-1.404.83l-3.947.563c-.103.015-.205.023-.307.023zm3.462-7.492a1.35 1.35 0 0 0-.199.014l-3.944.56c-.755.107-1.282.8-1.175 1.562l.5 3.426a1.38 1.38 0 0 0 .54.91c.295.222.66.316 1.026.262l3.946-.563a1.38 1.38 0 0 0 .912-.54 1.37 1.37 0 0 0 .263-1.022l-.492-3.425a1.38 1.38 0 0 0-.54-.908 1.36 1.36 0 0 0-.827-.277zm6.638 5.684c-1.273 0-2.414-1.062-2.622-2.5l-.273-1.9c-.107-.75.048-1.496.44-2.098.402-.618 1.003-1.013 1.7-1.1l6.046-.86c1.396-.202 2.72.916 2.946 2.484l.273 1.9c.117.813-.083 1.634-.548 2.25-.398.53-.962.87-1.583.956l-6.046.86a2.17 2.17 0 0 1-.322.024zm5.605-7.765a1.49 1.49 0 0 0-.22.016l-6.045.86c-.47.067-.885.344-1.168.78-.293.45-.408 1.014-.326 1.586l.27 1.9c.167 1.16 1.095 2 2.102 1.853l6.045-.86c.425-.06.813-.296 1.1-.666.347-.46.495-1.08.406-1.698l-.274-1.9c-.154-1.076-.974-1.868-1.88-1.868z" fill="#00172a"/><path fill="#fff" d="M1326.214 266.384l-2.682 1.466c-.306.167-.693.055-.86-.25l-.237-.43a.63.63 0 0 1 .251-.856l2.68-1.465c.306-.167.694-.055.86.25l.237.43a.63.63 0 0 1-.251.855z"/><g opacity=".2" fill="#211915"><ellipse cx="987.888" cy="134.07" rx="1.922" ry="1.916"/><ellipse cx="987.888" cy="144.014" rx="1.922" ry="1.916"/><ellipse cx="987.888" cy="153.959" rx="1.922" ry="1.916"/><ellipse cx="987.888" cy="163.903" rx="1.922" ry="1.916"/><ellipse cx="987.888" cy="173.848" rx="1.922" ry="1.916"/><ellipse cx="987.888" cy="183.792" rx="1.922" ry="1.916"/><ellipse cx="987.888" cy="193.738" rx="1.922" ry="1.916"/><ellipse cx="987.888" cy="203.681" rx="1.922" ry="1.916"/><ellipse cx="987.888" cy="213.627" rx="1.922" ry="1.916"/><ellipse cx="987.888" cy="223.571" rx="1.922" ry="1.916"/><ellipse cx="987.888" cy="234.006" rx="1.922" ry="1.916"/><ellipse cx="987.888" cy="243.949" rx="1.922" ry="1.916"/><ellipse cx="987.888" cy="253.895" rx="1.922" ry="1.916"/><ellipse cx="987.888" cy="263.839" rx="1.922" ry="1.916"/><ellipse cx="987.888" cy="273.784" rx="1.922" ry="1.916"/><ellipse cx="987.888" cy="283.729" rx="1.922" ry="1.916"/><ellipse cx="987.888" cy="293.674" rx="1.922" ry="1.916"/><ellipse cx="987.888" cy="303.617" rx="1.922" ry="1.916"/><ellipse cx="987.888" cy="313.563" rx="1.922" ry="1.916"/><ellipse cx="987.888" cy="323.506" rx="1.922" ry="1.916"/><path d="M1214.226 114.9H899.552V93.5a2.58 2.58 0 0 1 2.578-2.578h309.284c1.553 0 2.812 1.26 2.812 2.812V114.9z"/><ellipse cx="1168.112" cy="104.641" rx="4.469" ry="4.453"/><ellipse cx="1180.142" cy="104.641" rx="4.468" ry="4.453"/><ellipse cx="1191.601" cy="104.641" rx="4.469" ry="4.453"/><use xlink:href="#C"/><use xlink:href="#C" y="9.372"/><use xlink:href="#C" y="18.744"/><path d="M1005.762 161.158h67.885v4.795h-67.885z"/><use xlink:href="#C" x="16.956" y="45.366"/><use xlink:href="#C" x="16.956" y="54.738"/><use xlink:href="#C" x="127.333" y="54.566"/><use xlink:href="#C" x="16.956" y="64.11"/><path d="M1048.04 133.042h94.695v4.795h-94.695zm0 9.372h70.98v4.795h-70.98zm76.048-.086h47.7v4.795h-47.7zm-76.048 9.458h139.093v4.795H1048.04zm38.267 9.372h90.284v4.795h-90.284zm-21.312 17.25h121.736v4.795h-121.736zm0 9.372h63.303v4.795h-63.303zm0 9.372h98.2v4.795h-98.2z"/><use xlink:href="#C" x="37.578" y="75.47"/><path d="M1085.734 208.456h100.824v4.795h-100.824zm-42.394 9.428h154.103v4.795H1043.34zm0 9.372h88.108v4.795h-88.108zm93.522 0h60.18v4.795h-60.18zm-113.914 9.372h37.465v4.796h-37.465zm0 9.372h95.897v4.795h-95.897zm101.455-.114h73.04v4.796h-73.04zm-101.455 9.486h70.462v4.796h-70.462zm0 9.37h84.44v4.796h-84.44zm22.455 9.99h93.38v4.795h-93.38zm0 9.37h117.2v4.795h-117.2z"/><use xlink:href="#C" x="39.641" y="160.438"/><path d="M1178.768 302.727h14.896v4.795h-14.896zm-133.365.123h127.406v4.795h-127.406zm6.187 9.37h37.465v4.795H1051.6zm42.622 0h90.8v4.795h-90.8zm-48.81 9.374h71.2v4.795h-71.2zm-11.685 9.37h37.465v4.795h-37.465zm-92.576-197.81h30.592v4.795h-30.592zm0 9.374h30.592v4.795h-30.592zm-15.698 18.742h46.3v4.795h-46.3zm0 17.25h36.207v4.795h-36.207zm0-45.366h10.886v4.795h-10.886zm0 9.374h10.886v4.795h-10.886zm0 66.096h15.584v4.795h-15.584zm0 9.372h15.584v4.795h-15.584zm0 28.115h35.978v4.795h-35.978zm0 18.744h35.978v4.795h-35.978z"/><use xlink:href="#D"/><use xlink:href="#D" y="28.115"/><use xlink:href="#D" y="46.859"/><path d="M1214.4 351.23H899.58V114.225h314.82V351.23zm-313.445-1.37h312.07V115.595h-312.07V349.86z"/></g><g opacity=".2" fill="#211915"><circle cx="1602.631" cy="76.458" r="1.236"/><circle cx="1602.631" cy="82.873" r="1.236"/><circle cx="1602.631" cy="89.288" r="1.236"/><circle cx="1602.631" cy="95.703" r="1.236"/><circle cx="1602.631" cy="102.118" r="1.236"/><circle cx="1602.631" cy="108.532" r="1.236"/><circle cx="1602.631" cy="114.948" r="1.236"/><circle cx="1602.631" cy="121.362" r="1.236"/><circle cx="1602.631" cy="127.777" r="1.236"/><circle cx="1602.631" cy="134.192" r="1.236"/><circle cx="1602.631" cy="140.923" r="1.236"/><circle cx="1602.631" cy="147.338" r="1.236"/><circle cx="1602.631" cy="153.753" r="1.236"/><circle cx="1602.631" cy="160.167" r="1.236"/><circle cx="1602.631" cy="166.583" r="1.236"/><circle cx="1602.631" cy="172.997" r="1.236"/><circle cx="1602.631" cy="179.413" r="1.236"/><circle cx="1602.631" cy="185.827" r="1.236"/><circle cx="1602.631" cy="192.242" r="1.236"/><circle cx="1602.631" cy="198.657" r="1.236"/><path d="M1748.633 64.1H1545.65V51.197a2.58 2.58 0 0 1 2.578-2.578h197.594c1.554 0 2.813 1.26 2.813 2.812V64.1z"/><ellipse cx="1718.887" cy="57.475" rx="2.883" ry="2.872"/><ellipse cx="1726.646" cy="57.475" rx="2.883" ry="2.872"/><ellipse cx="1734.039" cy="57.475" rx="2.882" ry="2.872"/><path d="M1614.16 75.795h24.168v3.093h-24.168z"/><use xlink:href="#E"/><use xlink:href="#E" y="6.046"/><path d="M1614.16 93.932h43.8v3.093h-43.8zm10.94 11.128h24.167v3.094H1625.1zm0 6.044h24.167v3.094H1625.1zm71.2-.1h24.168v3.094H1696.3zm-71.2 6.156h24.167v3.093H1625.1zm16.333-41.355h61.083v3.093h-61.083zm0 6.045h45.784v3.094h-45.784zm49.055-.054h30.764v3.093h-30.764zm-49.055 6.1h89.724v3.094h-89.724zm24.684 6.046h58.24v3.093h-58.24zm-13.747 11.128h78.526v3.094h-78.526zm0 6.044h40.834v3.094h-40.834zm0 6.046h63.34v3.093h-63.34zm-13.968 7.328h24.168v3.093h-24.168zm27.346-.036h65.038v3.093h-65.038zm-27.346 6.082h99.405v3.093h-99.405zm0 6.046h56.835v3.094h-56.835zm60.328 0h38.82v3.094h-38.82zm-73.483 6.045h24.167v3.094h-24.167zm0 6.045h61.86v3.094h-61.86zm65.443-.074h47.116v3.094H1690.7zm-65.443 6.12h45.452v3.094h-45.452zm0 6.044h54.47v3.094h-54.47zm14.485 6.446h60.234v3.093h-60.234zm0 6.044h75.606v3.093h-75.606zm0 6.047h24.167v3.093h-24.167zm86.028 5.965h9.608v3.093h-9.608zm-86.028.08h82.185v3.094h-82.185z"/><use xlink:href="#E" x="29.563" y="109.536"/><path d="M1671.217 191.376h58.57v3.094h-58.57zm-31.485 6.046h45.934v3.094h-45.934z"/><use xlink:href="#E" x="18.033" y="121.627"/><path d="M1572.477 75.87h19.733v3.094h-19.733zm0 6.046h19.733v3.093h-19.733zm-10.125 12.09h29.858V97.1h-29.858zm0 11.127h23.355v3.094h-23.355zm0-29.262h7.02v3.094h-7.02zm0 6.046h7.02v3.093h-7.02zm0 42.636h10.052v3.094h-10.052zm0 6.045h10.052v3.094h-10.052zm0 18.136h23.207v3.094h-23.207zm0 12.092h23.207v3.093h-23.207z"/><use xlink:href="#F"/><use xlink:href="#F" y="18.135"/><use xlink:href="#F" y="30.226"/><path d="M1748.746 216.54h-203.08V63.657h203.08V216.54zm-202.192-.884h201.306V64.54h-201.306v151.116z"/></g><g opacity=".2" fill="#211915"><circle cx="1425.763" cy="270.777" r="1.222"/><circle cx="1425.763" cy="277.121" r="1.223"/><circle cx="1425.763" cy="283.467" r="1.223"/><circle cx="1425.763" cy="289.811" r="1.222"/><circle cx="1425.763" cy="296.156" r="1.223"/><circle cx="1425.763" cy="302.501" r="1.222"/><circle cx="1425.763" cy="308.847" r="1.222"/><circle cx="1425.763" cy="315.191" r="1.223"/><circle cx="1425.763" cy="321.537" r="1.223"/><circle cx="1425.763" cy="327.881" r="1.223"/><circle cx="1425.763" cy="334.54" r="1.222"/><circle cx="1425.763" cy="340.884" r="1.223"/><circle cx="1425.763" cy="347.229" r="1.222"/><circle cx="1425.763" cy="353.574" r="1.222"/><circle cx="1425.763" cy="359.919" r="1.223"/><circle cx="1425.763" cy="366.264" r="1.223"/><circle cx="1425.763" cy="372.609" r="1.223"/><circle cx="1425.763" cy="378.954" r="1.223"/><circle cx="1425.763" cy="385.3" r="1.223"/><circle cx="1425.763" cy="391.644" r="1.223"/><path d="M1570.174 258.552h-200.772v-13.667c0-.908.736-1.645 1.645-1.645h197.334c.99 0 1.794.803 1.794 1.794v13.518z"/><ellipse cx="1540.752" cy="252" rx="2.851" ry="2.841"/><ellipse cx="1548.428" cy="252" rx="2.851" ry="2.841"/><ellipse cx="1555.739" cy="252" rx="2.851" ry="2.841"/><use xlink:href="#G"/><use xlink:href="#G" y="5.98"/><use xlink:href="#G" y="11.96"/><path d="M1437.167 288.06h43.313v3.06h-43.313z"/><use xlink:href="#G" x="10.818" y="28.946"/><use xlink:href="#G" x="10.818" y="34.925"/><path d="M1518.4 304.936h23.904v3.06H1518.4z"/><use xlink:href="#G" x="10.818" y="40.905"/><path d="M1464.142 270.12h60.42v3.06h-60.42zm0 5.98h45.287v3.06h-45.287zm48.52-.054h30.428v3.06h-30.428zm-48.52 6.034h88.746v3.06h-88.746zm24.416 5.98h57.604v3.06h-57.604zm-13.598 11.006h77.672v3.06h-77.672zm0 5.98h40.4v3.06h-40.4zm0 5.98h62.648v3.06h-62.648z"/><use xlink:href="#G" x="23.977" y="48.153"/><path d="M1488.192 318.237h64.33v3.06h-64.33zm-27.048 6.017h98.323v3.06h-98.323zm0 5.978h56.217v3.06h-56.217zm59.67 0h38.396v3.06h-38.396zm-72.68 5.98h23.903v3.06h-23.903zm0 5.978h61.186v3.06h-61.186zm64.73-.07h46.603v3.06h-46.603zm-64.73 6.052h44.957v3.06h-44.957zm0 5.978h53.876v3.06h-53.876zm14.327 6.375h59.58v3.06h-59.58zm0 5.98h74.783v3.06h-74.783z"/><use xlink:href="#G" x="25.293" y="102.364"/><path d="M1547.55 378.385h9.504v3.06h-9.504zm-85.1.08h81.3v3.06h-81.3z"/><use xlink:href="#G" x="29.24" y="114.323"/><path d="M1493.602 384.443h57.934v3.06h-57.934zm-31.142 5.98h45.434v3.06h-45.434zm-7.456 5.98h23.903v3.06h-23.903zm-59.066-126.21h19.52v3.06h-19.52zm0 5.98h19.52v3.06h-19.52zm-10.016 11.96h29.534v3.06h-29.534zm0 11.007h23.102v3.06h-23.102zm0-28.947h6.945v3.06h-6.945zm0 5.98h6.945v3.06h-6.945zm0 42.172h9.943v3.06h-9.943zm0 5.98h9.943v3.06h-9.943zm0 17.94h22.955v3.06h-22.955zm0 11.96h22.955v3.06h-22.955z"/><use xlink:href="#H"/><use xlink:href="#H" y="17.938"/><use xlink:href="#H" y="29.898"/><path d="M1570.286 409.333H1369.42V258.115h200.867v151.218zm-199.99-.874h199.11v-149.47h-199.11v149.47z"/></g><path opacity=".57" fill="#474350" d="M1401.504 466.418h-140.42c-1.9 0-3.474-1.563-3.474-3.474v-2.648c0-1.9 1.563-3.474 3.474-3.474h140.42c1.9 0 3.474 1.563 3.474 3.474v2.648c0 1.9-1.564 3.474-3.474 3.474z"/><path fill="#0a0908" d="M1326.967 408.757h10.337v53.57h-10.337z"/><path fill="#474350" d="M1312.723 381h23.83v28.846h-23.83z"/><path fill="#0a0908" d="M1330.703 381h23.83v28.846h-23.83z"/><path fill="#1b1b1e" d="M1383.178 383.445h-57.756l12.99-107.648c.563-4.672 4.542-8.188 9.265-8.188h49.48l-13.98 115.836z"/><path fill="#0a0908" d="M1381.314 393.705h-1.058c-3.81 0-6.555-3.106-6.095-6.903l13.55-112.3c.46-3.796 3.95-6.903 7.76-6.903h1.06c3.812 0 6.555 3.107 6.094 6.903l-13.548 112.3c-.458 3.797-3.95 6.903-7.762 6.903z"/><path fill="#15294a" d="M1268.688 350.555l95.12 3.164v16.1h-88.336z"/><g fill="#fff"><path d="M1319.986 334.832c-3.6-8.36-12.23-9.9-16.184-18.05-3.43-7.076-.1-21.24 5.1-27.245l.12-.136c13.385-10.638 17.625-6.858 26.682-7.288a56.37 56.37 0 0 1 1.526-.046c9.833-.202 20.23 2.157 23.52 10.378 8.383 20.954 11.292 46.35 13.67 68.898.185 1.757.308 3.7-.92 5.033-.032.01-.062.024-.095.037l-33.152-8.833c-4.26.001-17.146-15.52-20.256-22.748z"/><path d="M1360.354 291.683c-1.864-4.746-8.593-8.9-13.92-7.442-4.547 1.248-6.06 7.66-4.2 12.418 3.132 7.977 7.043 16.587 10.823 25.092l15.826-5.174c-2.565-8.123-5.148-16.257-8.54-24.894z"/></g><path fill="#ff969b" d="M1377.766 342.5c-3.537-9.007-6.194-17.465-8.87-25.934l-15.826 5.174c2.686 6.042 5.306 12.03 7.53 17.7-12.56.695-28.618 5.008-41.446 4.867-12.116-.133-11.422 11.434.68 11.566 17.416.192 30.885-2.303 48.302-2.1 5.634.063 11.876-5.54 9.63-11.263z"/><path d="M1275.154 374.584l5.345-2.113-14.375-2.046c-5.52-.966-9.212-6.188-8.282-11.693-.877 4.883 1.634 14.4 10.492 17.635a100.03 100.03 0 0 0 3.483 1.186c.4-1.105 1.505-2.245 3.337-2.97zm101.506-15.664c.924 5.502-2.767 10.72-8.282 11.687-2.842.498-7.7 1.162-13.58 1.904l4.64 1.835c2.027.8 3.174 2.104 3.466 3.317 1.1-.353 2.176-.723 3.265-1.12 8.853-3.222 11.364-12.737 10.492-17.624zm-36.472 20.527c-1.852.245-4.236.14-7.227-.457-1.44-.292-7.636-1.058-15.776-2.042l-17.1 2.13c-2.404.482-4.38.643-6 .563l-11.442.694c11.125 2.182 22.24 2.385 33.456 1.563 12.453 1.06 24.77.94 37.107-1.662l-13.018-.788z" fill="#15294a"/><path fill="#fcdc4d" d="M1289.12 373.558l-8.62-1.087-5.345 2.113c-1.832.724-2.938 1.864-3.337 2.968-.63 1.746.506 3.408 3.408 3.23l18.87-1.142c-5.175-.25-6.442-3.023-4.976-6.083z"/><path fill="#294675" d="M1294.096 379.64c1.6.08 3.586-.08 6-.563 1.495-.298 8.278-1.105 17.1-2.13l-28.065-3.39c-1.467 3.06-.2 5.834 4.976 6.083z"/><path fill="#fcdc4d" d="M1359.436 374.346l-18.163-7.182c-.87-.347-1.728-.11-1.8.494l-.01.094c6.802 3.908 8.2 10.706.715 11.695.012.001 13.03.79 13.03.79l6.146.37c2.756.166 3.936-1.306 3.538-2.944-.292-1.213-1.438-2.517-3.465-3.317z"/><path d="M1380.8 393.6h-81.392c-4.4 0-7.98-3.578-7.98-7.952s3.6-7.95 7.98-7.95h81.392c4.4 0 7.98 3.58 7.98 7.95s-3.6 7.952-7.98 7.952zm-4.054 68.727l.014-.288c0-2.876-2.36-5.227-5.248-5.227h-51.662c-2.886 0-5.246 2.35-5.246 5.227 0 .1.01.193.015.288h62.127z" fill="#0a0908"/><path fill="#1b1b1e" d="M1346.085 462.327l.005-.113c0-2.88-2.36-5.232-5.246-5.232h-51.662c-2.887 0-5.247 2.354-5.247 5.23 0 .038.005.077.006.115h62.144z"/><path fill="#cb793a" d="M1336.398 261.793l-1.645.09a3.84 3.84 0 0 1-4.201-3.41l-.606-5.91c-.214-2.09 1.325-3.974 3.423-4.187l1.81-.12c2.096-.213 2.176 1.44 2.39 3.53l.606 5.91c.214 2.09.32 3.885-1.78 4.098z"/><path fill="#fcdc4d" d="M1337.625 261.654l-2.123.216c-1.512.154-2.876-.957-3.03-2.47l-.82-8.006a2.77 2.77 0 0 1 2.47-3.032l2.123-.217c1.512-.153 2.875.957 3.03 2.47l.822 8.006c.154 1.514-.957 2.88-2.47 3.033z"/><path fill="#2c2c34" d="M1357.554 356.548h-57.67a2.22 2.22 0 0 1-2.214-2.207c0-1.21.996-2.205 2.214-2.205h57.67c1.216 0 2.212.994 2.212 2.205a2.22 2.22 0 0 1-2.212 2.207z"/><path fill="#494850" d="M1335.036 356.548h-57.67a2.22 2.22 0 0 1-2.213-2.207c0-1.21.996-2.205 2.213-2.205h57.67c1.217 0 2.212.994 2.212 2.205s-.995 2.207-2.212 2.207z"/><path fill="#294675" d="M1363.204 350.954l-9.006 1.985-13.263 2.715-12.44 2.6-10.874 2.524 5.274 1.384c4.45 1.217 8.878 2.56 13.28 4.087 1.21.42 2.307.932 3.297 1.502l.01-.094c.063-.604.92-.84 1.8-.494l13.523 5.347 13.58-1.904c5.516-.966 9.206-6.185 8.282-11.687-.842-4.99-5.152-8.43-9.98-8.47-.828-.005-1.67.073-2.514.28l-.96.224z"/><path fill="#3b5788" d="M1266.124 370.425c3.002.53 8.183 1.247 14.375 2.046l8.62 1.087 28.065 3.39 15.776 2.042c3 .597 5.375.702 7.227.457 7.484-.99 6.087-7.787-.715-11.695-1-.57-2.088-1.08-3.297-1.502-4.403-1.527-8.83-2.87-13.28-4.087l-5.274-1.384-9.416-2.22-12.065-2.563-15.837-3.237-6.256-1.354-3.708-.856c-.298-.07-.596-.12-.892-.167-5.455-.825-10.67 2.817-11.604 8.35-.93 5.503 2.762 10.726 8.282 11.692z"/><path fill="#f4fcff" d="M1334.46 354.887h-3.12a.43.43 0 0 1-.428-.429v-.326a.43.43 0 0 1 .428-.428h3.12a.43.43 0 0 1 .429.428v.326a.43.43 0 0 1-.429.429z"/><path fill="#ff969b" d="M1338.705 289.058h-15.84a2.71 2.71 0 0 1-2.698-2.698v-2.057a2.71 2.71 0 0 1 2.698-2.698h15.84c1.483 0 2.697 1.214 2.697 2.698v2.057c0 1.484-1.214 2.698-2.697 2.698z"/><path fill="#fcdc4d" d="M1332.242 347.4l-.554-.826 6.528-4.338a18.11 18.11 0 0 0 7.923-12.199c.847-5.035-.397-10.046-3.502-14.108l-1.298-1.697a33.14 33.14 0 0 1-6.778-20.015v-32.842h.998v32.842a32.15 32.15 0 0 0 6.573 19.413l1.298 1.697a19.05 19.05 0 0 1 3.692 14.874c-.892 5.31-3.858 9.877-8.354 12.862l-6.526 4.337z"/><defs><filter id="B" filterUnits="userSpaceOnUse" x="1259.016" y="248.171" width="99.794" height="103.965"><feColorMatrix values="1 0 0 0 0 0 1 0 0 0 0 0 1 0 0 0 0 0 1 0"/></filter><path id="C" d="M1005.762 133.042h37.466v4.795h-37.466z"/><path id="D" d="M925.444 274.848h13.52v4.795h-13.52z"/><path id="E" d="M1614.16 81.84h24.168v3.094h-24.168z"/><path id="F" d="M1562.352 167.27h8.722v3.094h-8.722z"/><path id="G" d="M1437.167 270.12h23.904v3.06h-23.904z"/><path id="H" d="M1385.922 360.598h8.627v3.06h-8.627z"/></defs><mask maskUnits="userSpaceOnUse" x="1259.016" y="248.171" width="99.794" height="103.965" id="K"><g filter="url(#B)"><defs><filter  filterUnits="userSpaceOnUse" x="1259.016" y="248.171" width="99.794" height="103.965"><feFlood flood-color="#fff" flood-opacity="1"/><feBlend in="SourceGraphic"/></filter></defs><mask maskUnits="userSpaceOnUse" x="1259.016" y="248.171" width="99.794" height="103.965" id="K"/><linearGradient id="L" gradientUnits="userSpaceOnUse" x1="1281.735" y1="362.061" x2="1343.576" y2="291.445"><stop offset="0" stop-color="#fff"/><stop offset="1"/></linearGradient><path mask="url(#K)" fill="url(#L)" d="M1259.016 310.136l55.456-61.965 44.338 103.75-22.456.214z"/></g></mask><path fill="#978897" d="M1336.354 352.136h-61.2l-18.974-37.403c-1.07-2.106.468-4.597 2.835-4.597h52.9a5.08 5.08 0 0 1 4.532 2.778l19.897 39.222z"/><path fill="#1b1b1e" d="M1350.825 393.6h-78.555c-4.388 0-7.98-3.578-7.98-7.952s3.59-7.95 7.98-7.95h78.555c4.39 0 7.98 3.58 7.98 7.95s-3.6 7.952-7.98 7.952z"/><path fill="#fcdc4d" d="M1334.738 248.815a.5.5 0 0 1-.495-.44c-.57-4.888-2.303-8.35-5.15-10.293-3.968-2.71-8.8-1.507-8.838-1.494-.275.07-.54-.09-.608-.355a.5.5 0 0 1 .357-.607c.216-.054 5.313-1.325 9.653 1.637 3.095 2.113 4.97 5.813 5.576 11a.5.5 0 0 1-.438.552c-.02-.001-.038.001-.058.001z"/><path d="M1320.307 254.268l-.028-.2a.25.25 0 0 1 .21-.284l1.385-.208a.25.25 0 0 1 .285.21l.03.2a.25.25 0 0 1-.21.284l-1.386.208c-.136.02-.264-.074-.285-.2zm-10.52 1.836l-.028-.188a.25.25 0 0 1 .21-.285l1.386-.208a.25.25 0 0 1 .284.21l.03.2c.02.136-.074.265-.2.285l-1.385.208c-.135.02-.264-.075-.285-.2z" fill="#fff"/></svg>